<svg width="40" height="39" viewBox="0 0 40 39" fill="none" xmlns="http://www.w3.org/2000/svg">
<path fill-rule="evenodd" clip-rule="evenodd" d="M5.85791 19.5001C5.85791 11.4229 12.4058 4.875 20.483 4.875C28.5601 4.875 35.1079 11.4229 35.1079 19.5001C35.1079 27.5773 28.5601 34.1251 20.483 34.1251C12.4058 34.1251 5.85791 27.5773 5.85791 19.5001ZM20.483 7.05516C13.6098 7.05516 8.03807 12.6269 8.03807 19.5001C8.03807 22.6797 9.23053 25.5809 11.1927 27.7806C13.2626 24.8879 16.6521 23.0001 20.4838 23.0001C24.315 23.0001 27.7041 24.8875 29.7741 27.7797C31.7358 25.58 32.9278 22.6792 32.9278 19.5001C32.9278 12.6269 27.3559 7.05516 20.483 7.05516ZM28.1679 29.2893C26.51 26.8099 23.6865 25.1802 20.4838 25.1802C17.2806 25.1802 14.4569 26.8103 12.799 29.2902C14.9148 30.9531 17.5831 31.9449 20.483 31.9449C23.3833 31.9449 26.052 30.9529 28.1679 29.2893ZM15.0902 17.2166C15.0902 14.2382 17.5047 11.8236 20.4832 11.8236C23.4617 11.8236 25.8762 14.2382 25.8762 17.2166C25.8762 20.1951 23.4617 22.6097 20.4832 22.6097C17.5047 22.6097 15.0902 20.1951 15.0902 17.2166ZM20.4832 14.0038C18.7088 14.0038 17.2703 15.4422 17.2703 17.2166C17.2703 18.9911 18.7088 20.4295 20.4832 20.4295C22.2576 20.4295 23.6961 18.9911 23.6961 17.2166C23.6961 15.4422 22.2576 14.0038 20.4832 14.0038Z" fill="#4285F4"/>
</svg>
