<svg width="40" height="39" viewBox="0 0 40 39" fill="none" xmlns="http://www.w3.org/2000/svg">
<path fill-rule="evenodd" clip-rule="evenodd" d="M13.581 3.65625C14.2024 3.65625 14.706 4.15993 14.706 4.78125V5.90625H25.956V4.78125C25.956 4.15993 26.4598 3.65625 27.081 3.65625C27.7023 3.65625 28.206 4.15993 28.206 4.78125V5.90625H31.581C33.4449 5.90625 34.956 7.41728 34.956 9.28125V29.5312C34.956 31.3951 33.4449 32.9062 31.581 32.9062H9.08105C7.21709 32.9062 5.70605 31.3951 5.70605 29.5312V9.28125C5.70605 7.41728 7.21709 5.90625 9.08105 5.90625H12.4561V4.78125C12.4561 4.15993 12.9597 3.65625 13.581 3.65625ZM25.956 8.15625V9.28125C25.956 9.90256 26.4598 10.4062 27.081 10.4062C27.7023 10.4062 28.206 9.90256 28.206 9.28125V8.15625H31.581C32.2023 8.15625 32.706 8.65993 32.706 9.28125V12.6562H7.95605V9.28125C7.95605 8.65993 8.45974 8.15625 9.08105 8.15625H12.4561V9.28125C12.4561 9.90256 12.9597 10.4062 13.581 10.4062C14.2024 10.4062 14.706 9.90256 14.706 9.28125V8.15625H25.956ZM7.95605 14.9062V29.5312C7.95605 30.1525 8.45974 30.6562 9.08105 30.6562H31.581C32.2023 30.6562 32.706 30.1525 32.706 29.5312V14.9062H7.95605ZM19.206 18.2812C19.206 17.6599 19.7097 17.1562 20.331 17.1562C20.9524 17.1562 21.456 17.6599 21.456 18.2812C21.456 18.9026 20.9524 19.4062 20.331 19.4062C19.7097 19.4062 19.206 18.9026 19.206 18.2812ZM24.831 17.1562C24.2097 17.1562 23.706 17.6599 23.706 18.2812C23.706 18.9026 24.2097 19.4062 24.831 19.4062C25.4524 19.4062 25.956 18.9026 25.956 18.2812C25.956 17.6599 25.4524 17.1562 24.831 17.1562ZM28.206 18.2812C28.206 17.6599 28.7098 17.1562 29.331 17.1562C29.9523 17.1562 30.456 17.6599 30.456 18.2812C30.456 18.9026 29.9523 19.4062 29.331 19.4062C28.7098 19.4062 28.206 18.9026 28.206 18.2812ZM29.331 21.6562C28.7098 21.6562 28.206 22.1599 28.206 22.7812C28.206 23.4026 28.7098 23.9062 29.331 23.9062C29.9523 23.9062 30.456 23.4026 30.456 22.7812C30.456 22.1599 29.9523 21.6562 29.331 21.6562ZM23.706 22.7812C23.706 22.1599 24.2097 21.6562 24.831 21.6562C25.4524 21.6562 25.956 22.1599 25.956 22.7812C25.956 23.4026 25.4524 23.9062 24.831 23.9062C24.2097 23.9062 23.706 23.4026 23.706 22.7812ZM20.331 21.6562C19.7097 21.6562 19.206 22.1599 19.206 22.7812C19.206 23.4026 19.7097 23.9062 20.331 23.9062C20.9524 23.9062 21.456 23.4026 21.456 22.7812C21.456 22.1599 20.9524 21.6562 20.331 21.6562ZM14.706 22.7812C14.706 22.1599 15.2097 21.6562 15.831 21.6562C16.4524 21.6562 16.956 22.1599 16.956 22.7812C16.956 23.4026 16.4524 23.9062 15.831 23.9062C15.2097 23.9062 14.706 23.4026 14.706 22.7812ZM11.3311 21.6562C10.7097 21.6562 10.2061 22.1599 10.2061 22.7812C10.2061 23.4026 10.7097 23.9062 11.3311 23.9062C11.9524 23.9062 12.4561 23.4026 12.4561 22.7812C12.4561 22.1599 11.9524 21.6562 11.3311 21.6562ZM10.2061 27.2812C10.2061 26.66 10.7097 26.1562 11.3311 26.1562C11.9524 26.1562 12.4561 26.66 12.4561 27.2812C12.4561 27.9025 11.9524 28.4062 11.3311 28.4062C10.7097 28.4062 10.2061 27.9025 10.2061 27.2812ZM15.831 26.1562C15.2097 26.1562 14.706 26.66 14.706 27.2812C14.706 27.9025 15.2097 28.4062 15.831 28.4062C16.4524 28.4062 16.956 27.9025 16.956 27.2812C16.956 26.66 16.4524 26.1562 15.831 26.1562ZM19.206 27.2812C19.206 26.66 19.7097 26.1562 20.331 26.1562C20.9524 26.1562 21.456 26.66 21.456 27.2812C21.456 27.9025 20.9524 28.4062 20.331 28.4062C19.7097 28.4062 19.206 27.9025 19.206 27.2812ZM24.831 26.1562C24.2097 26.1562 23.706 26.66 23.706 27.2812C23.706 27.9025 24.2097 28.4062 24.831 28.4062C25.4524 28.4062 25.956 27.9025 25.956 27.2812C25.956 26.66 25.4524 26.1562 24.831 26.1562Z" fill="#9F2D24"/>
</svg>
