<svg width="464" height="377" viewBox="0 0 464 377" fill="none" xmlns="http://www.w3.org/2000/svg">
<path d="M463.175 288.524H285.846V191.787H463.175V288.524ZM286.928 287.504H462.093V192.807H286.928V287.504Z" fill="#E0E0E0"/>
<path d="M426.593 243.369H309.596V246.602H426.593V243.369Z" fill="#F0F0F0"/>
<path d="M434.653 255.425H309.596V258.954H434.653V255.425Z" fill="#F0F0F0"/>
<path d="M434.653 267.624H309.596V271.153H434.653V267.624Z" fill="#F0F0F0"/>
<path d="M350.485 225.855H309.596V234.25H350.485V225.855Z" fill="#F0F0F0"/>
<path d="M462.634 192.297H286.419V207.699H462.634V192.297Z" fill="#E0E0E0"/>
<path d="M449.077 205.394C448.849 205.19 451.122 202.609 454.14 199.631C457.159 196.653 459.81 194.398 460.026 194.592C460.243 194.786 457.981 197.377 454.963 200.365C451.944 203.354 449.293 205.598 449.077 205.394Z" fill="white"/>
<path d="M460.048 205.394C459.832 205.598 457.192 203.354 454.162 200.365C451.132 197.377 448.871 194.796 449.098 194.592C449.325 194.388 451.955 196.632 454.984 199.631C458.014 202.63 460.254 205.19 460.048 205.394Z" fill="white"/>
<path d="M244.968 0.730988H68.7535V96.458H244.968V0.730988Z" fill="#F0F0F0"/>
<path d="M208.937 51.8126H91.9408V55.046H208.937V51.8126Z" fill="#F0F0F0"/>
<path d="M216.998 63.869H91.9408V67.3982H216.998V63.869Z" fill="#F0F0F0"/>
<path d="M216.998 76.0682H91.9408V79.5974H216.998V76.0682Z" fill="#F0F0F0"/>
<path d="M132.83 34.2992H91.9408V42.6938H132.83V34.2992Z" fill="#F0F0F0"/>
<path d="M244.968 0.730988H68.7535V16.133H244.968V0.730988Z" fill="#E0E0E0"/>
<path d="M230.815 13.7564C230.588 13.5626 232.86 10.9718 235.879 7.99339C238.898 5.01499 241.549 2.76079 241.765 2.96479C241.982 3.16879 239.72 5.74939 236.702 8.72779C233.683 11.7062 231.032 13.94 230.815 13.7564Z" fill="white"/>
<path d="M241.765 13.7564C241.549 13.9604 238.909 11.7164 235.879 8.72778C232.85 5.73918 230.588 3.16878 230.816 2.96478C231.043 2.76078 233.672 5.00478 236.702 7.99338C239.731 10.982 241.993 13.5626 241.765 13.7564Z" fill="white"/>
<path d="M178.23 178.558H0.933777V81.8108H178.23V178.558ZM2.01578 177.538H177.148V82.8308H2.01578V177.538Z" fill="#E0E0E0"/>
<path d="M141.659 133.402H24.662V136.636H141.659V133.402Z" fill="#F0F0F0"/>
<path d="M149.72 145.459H24.662V148.988H149.72V145.459Z" fill="#F0F0F0"/>
<path d="M149.72 157.658H24.662V161.187H149.72V157.658Z" fill="#F0F0F0"/>
<path d="M65.5508 115.889H24.662V124.284H65.5508V115.889Z" fill="#F0F0F0"/>
<path d="M177.689 82.3208H1.47479V97.7228H177.689V82.3208Z" fill="#E0E0E0"/>
<path d="M382.847 200.722H174.779V376.326H382.847V200.722Z" fill="#E6E6E6"/>
<path d="M185.242 145.408H22.2491V305.048H185.242V145.408Z" fill="#E0E0E0"/>
<path d="M185.242 145.408H22.2491V162.799H185.242V145.408Z" fill="#E0E0E0"/>
<path d="M35.7093 153.925C35.6796 154.555 35.4541 155.164 35.0609 155.675C34.6676 156.186 34.1238 156.577 33.497 156.799C32.8703 157.021 32.188 157.065 31.5351 156.925C30.8821 156.785 30.2872 156.467 29.824 156.011C29.3609 155.555 29.05 154.981 28.9298 154.36C28.8097 153.739 28.8857 153.098 29.1484 152.518C29.411 151.937 29.8487 151.442 30.4073 151.094C30.9658 150.745 31.6205 150.559 32.2902 150.559C33.2162 150.58 34.0956 150.946 34.7362 151.577C35.3769 152.208 35.7267 153.052 35.7093 153.925Z" fill="white"/>
<path d="M49.5913 153.925C49.5637 154.558 49.3391 155.17 48.9453 155.685C48.5516 156.199 48.0062 156.593 47.3769 156.817C46.7476 157.041 46.0623 157.086 45.4062 156.946C44.7501 156.805 44.1522 156.487 43.6869 156.028C43.2217 155.57 42.9096 154.994 42.7894 154.37C42.6693 153.746 42.7465 153.102 43.0114 152.519C43.2762 151.936 43.7171 151.439 44.2791 151.091C44.8411 150.742 45.4995 150.557 46.1722 150.559C47.0982 150.58 47.9776 150.946 48.6183 151.577C49.2589 152.208 49.6087 153.052 49.5913 153.925Z" fill="white"/>
<path d="M63.4734 153.925C63.4458 154.558 63.2212 155.17 62.8274 155.685C62.4337 156.199 61.8882 156.593 61.259 156.817C60.6297 157.041 59.9444 157.086 59.2883 156.946C58.6322 156.805 58.0343 156.487 57.569 156.028C57.1038 155.57 56.7916 154.994 56.6715 154.37C56.5514 153.746 56.6286 153.102 56.8935 152.519C57.1583 151.936 57.5992 151.439 58.1612 151.091C58.7232 150.742 59.3815 150.557 60.0543 150.559C60.9803 150.58 61.8597 150.946 62.5004 151.577C63.141 152.208 63.4908 153.052 63.4734 153.925Z" fill="white"/>
<path d="M439.901 35.6456H231.833V231.139H439.901V35.6456Z" fill="#FAFFEB"/>
<path d="M439.901 35.6456H231.833V58.5446H439.901V35.6456Z" fill="#E0E0E0"/>
<path d="M249.556 46.8656C249.518 47.6981 249.221 48.5016 248.703 49.1765C248.184 49.8515 247.467 50.3679 246.64 50.6619C245.813 50.9559 244.912 51.0143 244.05 50.8301C243.188 50.6458 242.403 50.2269 241.791 49.6254C241.179 49.0239 240.768 48.2662 240.61 47.4466C240.451 46.6269 240.551 45.7813 240.897 45.0147C241.244 44.2481 241.821 43.5944 242.559 43.1346C243.296 42.6749 244.16 42.4294 245.044 42.4286C246.265 42.4554 247.426 42.9373 248.272 43.7688C249.117 44.6004 249.579 45.7139 249.556 46.8656Z" fill="white"/>
<path d="M266.511 43.8668C267.111 44.4809 267.505 45.2478 267.646 46.0719C267.787 46.8961 267.667 47.7411 267.302 48.5016C266.937 49.2621 266.343 49.9046 265.593 50.3489C264.843 50.7932 263.972 51.0197 263.086 51.0002C262.201 50.9808 261.341 50.7162 260.615 50.2394C259.888 49.7626 259.326 49.0947 258.999 48.319C258.672 47.5432 258.594 46.6939 258.775 45.8768C258.957 45.0597 259.389 44.311 260.019 43.724C260.901 42.9329 262.079 42.5037 263.296 42.5305C264.513 42.5573 265.669 43.0378 266.511 43.8668Z" fill="white"/>
<path d="M286.106 46.8656C286.068 47.6981 285.771 48.5016 285.252 49.1765C284.734 49.8515 284.017 50.3679 283.19 50.6619C282.363 50.9559 281.462 51.0143 280.6 50.8301C279.738 50.6458 278.953 50.2269 278.341 49.6254C277.729 49.0239 277.318 48.2662 277.159 47.4466C277.001 46.6269 277.101 45.7813 277.447 45.0147C277.794 44.2481 278.371 43.5944 279.108 43.1346C279.846 42.6749 280.71 42.4294 281.594 42.4286C282.815 42.4554 283.976 42.9373 284.822 43.7688C285.667 44.6004 286.129 45.7139 286.106 46.8656Z" fill="white"/>
</svg>
