<svg width="91" height="147" viewBox="0 0 91 147" fill="none" xmlns="http://www.w3.org/2000/svg">
<path d="M20.7467 109.324C4.02982 98.3184 0.242825 77.8878 0.902846 59.5176C1.01105 56.4576 0.653999 53.214 2.20126 50.5314C3.74852 47.8488 7.36239 46.0026 10.273 47.2878C12.6858 48.3588 13.7354 51.0108 15.0879 53.2038C16.8925 56.1247 19.5371 58.5046 22.716 60.0684C24.7826 61.0884 27.3469 61.7004 29.3919 60.6396C32.2051 59.181 32.5297 55.5396 32.5081 52.4796C32.5081 46.788 32.472 41.1032 32.3999 35.4252C32.2054 32.3763 32.5343 29.3177 33.3737 26.3676C34.3799 23.4708 36.6197 20.7882 39.6817 19.9722C42.7438 19.1562 46.5632 20.8392 47.2557 23.8176C47.3749 25.0791 47.4074 26.3465 47.3531 27.612C47.4397 28.887 48.0672 30.2844 49.3332 30.672C50.5991 31.0596 51.9192 30.1722 52.893 29.2746C56.2255 26.2146 58.4977 22.2264 60.6076 18.2892C62.7175 14.352 64.7841 10.3026 67.8137 6.94679C70.8433 3.59099 75.0307 0.9288 79.7157 0.6738C84.4008 0.4188 89.2806 3.132 90.4492 7.416C91.6177 11.7 88.9668 16.0758 86.1212 19.554C81.8271 24.7169 76.7653 29.2688 71.0922 33.069C69.9848 33.639 69.101 34.5294 68.5711 35.6088C67.8678 37.6488 69.9128 39.6888 72.0443 40.3314C74.4572 41.0862 77.0756 40.8516 79.6183 41.1372C82.161 41.4228 84.866 42.4632 85.829 44.7072C87.1491 47.8284 84.3792 51.0924 81.6633 53.2344C76.2101 57.5184 70.0178 60.889 63.3559 63.1998C60.9755 64.0158 58.4761 64.74 56.5501 66.3108C54.6241 67.8816 53.4772 70.6254 54.635 72.7776C55.7927 74.9298 58.7682 75.6132 61.2676 75.1746C63.7671 74.736 65.9852 73.4712 68.3656 72.6246C72.8126 71.0436 78.5472 71.3292 81.3495 74.9502C82.2177 76.1975 82.7673 77.6177 82.955 79.099C83.1428 80.5803 82.9636 82.0826 82.4315 83.4876C81.3486 86.2838 79.682 88.8469 77.5301 91.0254C70.4435 99.0072 61.2357 105.072 50.848 108.6C40.5365 111.966 30.9825 112.884 20.7359 109.345" fill="#FAFFEB"/>
<path d="M85.6884 3.19321C85.6884 3.19321 85.591 3.29521 85.3746 3.47881L84.4116 4.2846C83.5676 4.9986 82.3234 6.03901 80.7545 7.41601C76.3062 11.3095 72.1757 15.5136 68.398 19.9926C65.9852 22.818 63.4857 26.0208 60.824 29.499C58.1623 32.9772 55.414 36.7308 52.6874 40.719C49.7804 44.9246 47.1184 49.2763 44.713 53.7546C43.4579 56.0904 42.3543 58.5282 41.2182 61.017L37.864 68.616C33.4427 78.1877 29.592 87.9848 26.3299 97.9614C23.7022 106.124 21.891 114.501 20.9199 122.982C20.2906 128.706 20.1892 134.47 20.6169 140.21C20.79 142.25 20.9523 143.81 21.1038 144.871C21.1687 145.381 21.212 145.789 21.2553 146.085V146.503C21.2087 146.371 21.1761 146.234 21.1579 146.095C21.1038 145.799 21.0389 145.402 20.9523 144.892C20.7576 143.872 20.552 142.26 20.3572 140.22C19.8352 134.469 19.8714 128.686 20.4654 122.941C21.3763 114.424 23.148 106.008 25.7564 97.8084C28.9911 87.8038 32.8313 77.982 37.2581 68.3916L40.6988 60.8232C41.8349 58.3446 42.9494 55.8864 44.2153 53.5404C46.6374 49.0485 49.3212 44.6865 52.2546 40.4742C55.0245 36.3942 57.8161 32.7018 60.4453 29.2542C63.0746 25.8066 65.6173 22.5834 68.0193 19.7682C71.8354 15.301 76.0215 11.1263 80.5381 7.2834C82.1394 5.9268 83.4162 4.9068 84.2818 4.2234L85.288 3.4584C85.4114 3.35716 85.5456 3.26828 85.6884 3.19321Z" fill="#263238"/>
<path d="M44.356 53.52C44.2033 53.0998 44.0981 52.6656 44.0422 52.2246C43.8691 51.378 43.6743 50.1846 43.4471 48.6342C42.9818 45.5742 42.5057 41.382 41.9972 36.741C41.4887 32.1 40.9152 27.8976 40.4391 24.8682C40.1903 23.3586 39.9739 22.1448 39.8224 21.2982C39.7042 20.8649 39.6424 20.4196 39.6385 19.9722C39.8248 20.3809 39.9591 20.8088 40.0388 21.2472C40.2768 22.0836 40.5473 23.2872 40.8503 24.807C41.467 27.867 42.0729 32.0286 42.5815 36.6798C43.09 41.331 43.5228 45.411 43.8583 48.5832C44.0206 50.0112 44.1612 51.225 44.2694 52.194C44.3535 52.6313 44.3825 53.0764 44.356 53.52Z" fill="#263238"/>
<path d="M85.9914 46.1964C85.4648 46.3045 84.9287 46.3659 84.39 46.38C83.308 46.4718 81.7715 46.5942 79.8672 46.7982C76.0586 47.1858 70.8217 47.8998 65.0763 48.9198C59.3309 49.9398 54.1697 51.0924 50.4585 51.9798C48.6083 52.4286 47.1151 52.8366 46.1305 53.112C45.6048 53.2881 45.0607 53.4112 44.5075 53.4792C45.0075 53.2422 45.5289 53.0476 46.0655 52.8978C47.0826 52.5612 48.5541 52.092 50.3935 51.5922C54.0831 50.5722 59.2443 49.3584 65.0114 48.318C69.8966 47.4374 74.826 46.7906 79.7807 46.38C81.6958 46.227 83.2431 46.1658 84.3251 46.1454C84.8809 46.1098 85.4391 46.1269 85.9914 46.1964Z" fill="#263238"/>
<path d="M26.2865 97.0944C26.1712 96.9467 26.0766 96.7856 26.0052 96.615L25.2911 95.1972C24.6744 93.963 23.8412 92.1372 22.8458 89.9034C20.8333 85.4154 18.2689 79.1322 15.5423 72.1554C12.8156 65.1786 10.3054 58.8954 8.40107 54.3564C7.47055 52.1532 6.70235 50.3478 6.12889 49.0014L5.52294 47.5428C5.43896 47.3746 5.3807 47.196 5.34985 47.0124C5.46521 47.1601 5.55975 47.3212 5.63115 47.4918L6.34527 48.9096C6.95119 50.1438 7.79517 51.9696 8.79061 54.2034C10.8031 58.6914 13.3675 64.9746 16.0941 71.9514C18.8207 78.9282 21.331 85.2114 23.2353 89.7504C24.1658 91.9536 24.934 93.759 25.4967 95.1054C25.7455 95.6868 25.9511 96.1254 26.1134 96.564C26.1974 96.7322 26.2557 96.9108 26.2865 97.0944Z" fill="#263238"/>
<path d="M81.5551 80.295C81.3819 80.3887 81.1963 80.4607 81.0033 80.5092L79.402 81.0192L73.4834 82.8246C68.4846 84.3546 61.5814 86.5374 54.0074 88.9446C46.4334 91.3518 39.4978 93.4938 34.4665 94.9218C31.9562 95.646 29.9113 96.1968 28.4938 96.564L26.86 96.9618C26.67 97.0187 26.4742 97.0563 26.2758 97.074C26.449 96.9802 26.6345 96.9082 26.8276 96.8598L28.4289 96.3498L34.3475 94.5444C39.3463 93.0144 46.2495 90.8316 53.8235 88.4244C61.3975 86.0172 68.3223 83.8752 73.3535 82.4472C75.8746 81.723 77.9088 81.1722 79.337 80.805L80.9708 80.4072C81.1608 80.3503 81.3567 80.3127 81.5551 80.295Z" fill="#263238"/>
</svg>
