<svg width="91" height="103" viewBox="0 0 91 103" fill="none" xmlns="http://www.w3.org/2000/svg">
<path d="M64.0063 21.8736L58.434 23.7504L56.0427 16.8858C51.6498 4.2276 37.6487 -2.4942 24.7838 1.7796C11.9188 6.0534 5.06972 19.9356 9.46264 32.5938L11.8539 39.4584L6.25993 41.3454C4.12686 42.1253 2.39466 43.6502 1.42339 45.603C0.452119 47.5558 0.316482 49.7864 1.04468 51.831L16.5497 96.4968C16.8716 97.509 17.406 98.4498 18.1212 99.2635C18.8363 100.077 19.7177 100.747 20.7129 101.233C21.7081 101.719 22.7968 102.012 23.9143 102.094C25.0319 102.175 26.1554 102.045 27.2183 101.709L84.9646 82.2372C87.1259 81.4586 88.8826 79.9202 89.8653 77.9457C90.8481 75.9711 90.9802 73.7141 90.2339 71.6496L74.7181 26.9838C74.3878 25.9745 73.8453 25.0382 73.1229 24.2308C72.4005 23.4234 71.5129 22.7615 70.5132 22.2846C69.5134 21.8077 68.422 21.5255 67.3041 21.4549C66.1861 21.3843 65.0646 21.5267 64.0063 21.8736ZM19.9905 29.0136C18.806 25.7223 19.0186 22.1265 20.5838 18.9797C22.149 15.8329 24.9453 13.3792 28.3868 12.1326C30.0862 11.5845 31.8853 11.3647 33.6768 11.4863C35.4683 11.608 37.2154 12.0685 38.8139 12.8406C40.4124 13.6126 41.8297 14.6803 42.9809 15.9799C44.1322 17.2795 44.994 18.7844 45.5149 20.4048L47.8953 27.2694L22.3709 35.8782L19.9905 29.0136ZM52.4505 68.6508L56.4106 80.0544C56.4834 80.2831 56.4599 80.5293 56.345 80.7421C56.2302 80.9548 56.0328 81.1177 55.7939 81.1968L50.2432 83.0634C50.0223 83.1211 49.7863 83.096 49.5846 82.9934C49.3829 82.8907 49.2312 82.7184 49.1612 82.5126L45.1686 71.16C42.9671 71.0469 40.8548 70.3025 39.1145 69.0265C37.3741 67.7505 36.0888 66.0037 35.4306 64.02C34.4896 61.3975 34.6612 58.5335 35.9097 56.0276C37.1581 53.5218 39.3865 51.5684 42.1282 50.5764C43.482 50.1404 44.9149 49.9658 46.3418 50.0629C47.7686 50.1601 49.1601 50.527 50.4333 51.1419C51.7065 51.7568 52.8354 52.607 53.7526 53.6419C54.6699 54.6768 55.3567 55.8752 55.7722 57.1656C56.4684 59.1807 56.526 61.3434 55.9379 63.3888C55.3498 65.4342 54.1416 67.2735 52.4613 68.6814L52.4505 68.6508Z" fill="#3B763B"/>
<path d="M58.1851 23.628C58.1851 23.7708 47.852 27.4326 34.9979 31.788C22.1437 36.1434 11.6591 39.642 11.605 39.54C11.5509 39.438 21.9381 35.7456 34.8031 31.38C47.6681 27.0144 58.131 23.4954 58.1851 23.628Z" fill="#BFFF00"/>
<path d="M70.455 25.5048C70.5027 25.5933 70.5425 25.6854 70.574 25.7802C70.6606 25.9842 70.7579 26.2494 70.8878 26.5758C71.1691 27.3204 71.5586 28.3506 72.0455 29.6358L76.2004 41.0394C77.9316 45.8742 79.9982 51.6066 82.2921 57.9714C83.3741 61.164 84.6508 64.4892 85.841 67.9878C86.4781 69.7907 86.7533 71.6897 86.6525 73.5876C86.5608 74.5746 86.2629 75.5348 85.7761 76.413C85.2561 77.2882 84.5617 78.0605 83.7311 78.6876C82.0595 79.8379 80.204 80.7297 78.2346 81.3294L72.6623 83.2164L62.1128 86.7762L44.249 92.7738L32.1847 96.7722L28.9387 97.7922L28.073 98.0574C27.9805 98.0962 27.8818 98.1203 27.7809 98.1288C27.7809 98.1288 27.8675 98.1288 28.0514 98.0064L28.8954 97.6902L32.1414 96.5376L44.1407 92.376L61.9721 86.256L72.5 82.6656L78.0723 80.7684C79.9858 80.1931 81.7873 79.3284 83.4065 78.2082C84.1794 77.6263 84.826 76.9095 85.3109 76.0968C85.7691 75.2846 86.0453 74.3924 86.1224 73.4754C86.222 71.6467 85.9578 69.8166 85.3433 68.0796C84.1748 64.6116 82.9413 61.2558 81.8268 58.0632C79.5763 51.6882 77.4988 45.9354 75.8542 41.1006C74.2095 36.2658 72.8246 32.3796 71.8724 29.646C71.418 28.3098 71.0717 27.2694 70.7904 26.5146L70.5307 25.6986C70.4981 25.6368 70.4727 25.5718 70.455 25.5048Z" fill="#FAFFEB"/>
<path d="M39.9859 11.439C39.9859 11.439 39.4124 11.1738 38.3521 10.7658C36.8406 10.2184 35.2421 9.9149 33.6237 9.86821C31.2249 9.79067 28.8376 10.2157 26.634 11.1126C23.9543 12.2295 21.663 14.036 20.023 16.3248C18.372 18.6071 17.4862 21.3042 17.4803 24.0666C17.5028 26.3307 17.8672 28.5803 18.5623 30.7476C19.1249 32.604 19.7092 34.083 20.0987 35.1132C20.3285 35.6365 20.5166 36.1752 20.6614 36.7248C20.354 36.2356 20.0968 35.7198 19.8931 35.1846C19.4495 34.1646 18.8112 32.7162 18.1836 30.8496C17.4133 28.6595 16.9939 26.3734 16.9393 24.0666C16.9105 21.1998 17.817 18.3939 19.5361 16.029C21.2333 13.6566 23.6183 11.7942 26.4068 10.6638C28.6791 9.76196 31.1409 9.36414 33.6021 9.50101C35.2556 9.58045 36.8799 9.94338 38.3953 10.572C38.8005 10.7482 39.1912 10.9528 39.5639 11.184C39.7178 11.2478 39.8602 11.3338 39.9859 11.439Z" fill="#263238"/>
<path d="M40.4836 51.3516C40.6563 51.253 40.8372 51.1677 41.0246 51.0966C41.5662 50.8662 42.1272 50.6786 42.7017 50.5356C43.6137 50.2819 44.5544 50.1312 45.5041 50.0868C46.7959 50.0214 48.0882 50.2053 49.3019 50.6274C52.0718 51.5454 54.6145 54.2076 55.8696 57.7674C56.4715 59.6778 56.4715 61.7119 55.8696 63.6222C55.2022 65.6956 54.006 67.5833 52.3856 69.12L52.4505 68.8446C53.8896 72.5676 55.4585 76.6068 57.0815 80.8194L57.1789 81.0744L56.9084 81.1662L54.4306 81.9414L49.0206 83.6448L48.7501 83.7264L48.6635 83.4714C47.1812 79.2486 45.5582 75.3114 44.3355 71.4456L44.5735 71.619C42.4583 71.4534 40.4414 70.7049 38.774 69.4668C37.2654 68.3715 36.0284 66.9791 35.1493 65.3868C34.3561 63.9748 33.9612 62.3942 34.0024 60.7968C34.0525 59.1643 34.4849 57.5623 35.2687 56.1058C36.0524 54.6492 37.1682 53.374 38.536 52.3716C39.099 51.9408 39.7308 51.5965 40.4079 51.3516C39.7967 51.6935 39.2044 52.0646 38.6334 52.4634C37.1309 53.6618 35.9797 55.2035 35.29 56.9412C34.698 58.2516 34.4211 59.6692 34.4791 61.0924C34.5371 62.5155 34.9286 63.9089 35.6254 65.1726C36.4899 66.7044 37.6971 68.0409 39.1635 69.0894C40.7542 70.2663 42.6771 70.9757 44.6926 71.1294H44.8765L44.9306 71.2824C46.1208 75.0768 47.7546 79.0446 49.2586 83.2878L48.9015 83.1246L54.3115 81.4212L56.7785 80.6358L56.6054 80.9826C54.9932 76.77 53.4351 72.7206 52.0069 68.9976V68.8446L52.1367 68.7222C53.7097 67.2492 54.8826 65.4403 55.5559 63.4488C56.1297 61.6214 56.1297 59.6764 55.5559 57.849C54.3765 54.4218 51.942 51.8208 49.3019 50.9028C48.1333 50.478 46.8856 50.2803 45.6339 50.3214C44.6993 50.3416 43.7701 50.4614 42.864 50.6784C41.2518 51.0558 40.4944 51.4026 40.4836 51.3516Z" fill="#263238"/>
</svg>
