<svg width="57" height="60" viewBox="0 0 57 60" fill="none" xmlns="http://www.w3.org/2000/svg">
<path d="M28.5126 0.0535979H28.004L26.5325 0.155604C25.7361 0.200707 24.9443 0.299569 24.1629 0.451413C23.6568 0.518403 23.1548 0.610318 22.6589 0.726802L20.9818 1.16541C18.1273 1.99098 15.4341 3.24836 13.0075 4.8884C9.80139 7.0822 7.12426 9.89097 5.15217 13.13C3.99305 14.9971 3.07064 16.9862 2.40388 19.0562C1.70328 21.306 1.2999 23.6288 1.20287 25.9718C1.13839 27.2026 1.16007 28.4361 1.26779 29.6642C1.26779 30.2864 1.45173 30.9086 1.53829 31.541C1.6111 32.1785 1.73773 32.8095 1.91699 33.428C2.88995 37.521 4.86411 41.343 7.68199 44.5892C10.4999 47.8353 14.0835 50.4157 18.147 52.1246C21.088 53.3209 24.2402 53.9886 27.4414 54.0932C30.7477 54.2646 34.0573 53.8174 37.1794 52.7774L38.1315 52.4408H38.2614L38.3696 52.502L52.0136 59.03L51.6133 59.3564C50.1526 55.0928 48.746 50.9618 47.3826 46.994V46.841L47.5017 46.7288C50.8115 43.5861 53.2686 39.7373 54.6645 35.5088C55.9288 31.643 56.2978 27.5663 55.7465 23.5544C55.2561 19.989 54.04 16.5464 52.1651 13.4156C50.5489 10.7262 48.4639 8.31247 45.9977 6.2756C43.9629 4.66341 41.7109 3.31208 39.3001 2.2568C37.476 1.51514 35.5762 0.951214 33.6304 0.573808L31.4664 0.237206L29.8975 0.125005L28.9454 0.0638078H28.6208C28.7286 0.0525234 28.8375 0.0525234 28.9454 0.0638078H29.9083L31.4772 0.125005L33.6412 0.420798C35.6112 0.770577 37.5369 1.31416 39.3867 2.04261C41.8388 3.08534 44.1315 4.43357 46.2033 6.0512C48.7148 8.07903 50.844 10.4932 52.5005 13.1912C54.4287 16.3556 55.6821 19.8449 56.1901 23.4626C56.7872 27.5364 56.4439 31.6838 55.1838 35.621C53.7788 39.9375 51.2837 43.8681 47.9128 47.0756L47.9777 46.8104C49.3411 50.7782 50.7585 54.9092 52.23 59.1626L52.4356 59.7848L51.8188 59.489L38.1748 52.9712H38.4128L37.4391 53.3078C34.2568 54.3634 30.886 54.8208 27.5171 54.6542C24.247 54.5368 21.0288 53.845 18.028 52.6142C12.3039 50.3032 7.54146 46.2866 4.47051 41.18C3.05732 38.8216 2.02527 36.2776 1.40845 33.632C1.23953 32.9975 1.11305 32.3536 1.02975 31.7042C0.943189 31.0616 0.802531 30.4292 0.770071 29.7968C0.477236 26.1675 0.884145 22.5182 1.97109 19.0256C2.65444 16.9271 3.60257 14.9135 4.79511 13.028C6.81425 9.75954 9.54715 6.93291 12.8127 4.73541C15.2793 3.09117 18.0178 1.84347 20.9169 1.043L22.6156 0.635005C23.1156 0.525677 23.6212 0.440566 24.1304 0.380005C24.9199 0.2422 25.7192 0.160365 26.5217 0.1352L28.004 0.0842122C28.1726 0.0628117 28.3425 0.0525723 28.5126 0.0535979Z" fill="#498D3E"/>
<path d="M34.6799 23.84H32.6782L28.3502 18.1076V14.3438C28.3502 14.3438 25.2557 14.1602 25.6236 19.0868C25.9915 24.0134 25.6236 22.7588 25.6236 22.7588C25.6236 22.7588 19.0559 22.7588 18.5149 23.3198C17.9739 23.8808 17.9414 29.858 17.8657 33.1934C17.8242 33.9974 18.0689 34.7915 18.561 35.4494C19.053 36.1073 19.7642 36.5913 20.5815 36.8246C20.8106 36.8844 21.0471 36.9153 21.2848 36.9164C22.9294 36.9164 31.2933 35.6618 31.2933 35.6618H34.7449L34.6799 23.84Z" fill="#3B763B"/>
<path d="M40.4038 22.8302L39.1703 35.723H35.7512V23.0954L40.4038 22.8302Z" fill="#BFFF00"/>
</svg>
