<svg width="156" height="285" viewBox="0 0 156 285" fill="none" xmlns="http://www.w3.org/2000/svg">
<path d="M53.1843 279.307V270.586L36.5972 270.474L36.4565 283.662L37.4844 283.734C42.0613 284.009 60.7691 284.417 63.842 283.519C67.2611 282.52 53.1843 279.307 53.1843 279.307Z" fill="#FAFFEB"/>
<path d="M64.2315 282.703C64.2315 282.846 58.0208 282.969 50.3711 282.969C42.7214 282.969 36.5107 282.846 36.5107 282.703C36.5107 282.561 42.7214 282.438 50.3711 282.438C58.0208 282.438 64.2315 282.561 64.2315 282.703Z" fill="#263238"/>
<path d="M53.4764 281.092C53.3358 281.02 53.4764 280.561 53.8118 280.072C54.1473 279.582 54.6017 279.378 54.7099 279.48C54.8181 279.582 54.5909 279.97 54.2663 280.388C53.9417 280.806 53.6171 281.163 53.4764 281.092Z" fill="#263238"/>
<path d="M54.5368 281.663C54.3853 281.663 54.4611 281.092 54.7857 280.551C55.1103 280.011 55.5431 279.684 55.6621 279.766C55.7811 279.847 55.5863 280.306 55.2834 280.786C54.9804 281.265 54.6775 281.714 54.5368 281.663Z" fill="#263238"/>
<path d="M41.5095 282.663C41.4446 282.663 41.1957 282.479 40.8387 282.091C40.4028 281.593 39.9173 281.135 39.3888 280.725C38.8691 280.333 38.25 280.076 37.5927 279.98C37.0841 279.919 36.7595 279.98 36.7271 279.919C36.6946 279.858 37.0084 279.643 37.6035 279.603C38.3889 279.587 39.155 279.832 39.7675 280.296C40.3414 280.737 40.8253 281.273 41.1957 281.877C41.4446 282.326 41.5744 282.622 41.5095 282.663Z" fill="#263238"/>
<path d="M53.5305 279.45C53.6062 279.572 53.3249 279.878 52.8488 280.041C52.3728 280.204 51.9508 280.143 51.9292 280.041C51.9075 279.939 52.2429 279.725 52.6541 279.582C53.0653 279.439 53.4439 279.327 53.5305 279.45Z" fill="#263238"/>
<path d="M53.2709 278.603C53.2709 278.756 52.8381 278.878 52.2754 278.889C51.7128 278.899 51.2692 278.776 51.28 278.634C51.2908 278.491 51.7344 278.358 52.2754 278.348C52.8164 278.338 53.2492 278.46 53.2709 278.603Z" fill="#263238"/>
<path d="M94.0298 279.307V270.586L77.4427 270.474L77.3021 283.53L78.33 283.601C82.9068 283.876 101.625 284.417 104.687 283.519C108.107 282.52 94.0298 279.307 94.0298 279.307Z" fill="#FAFFEB"/>
<path d="M105.077 282.724C105.077 282.867 98.8772 282.989 91.2166 282.989C83.556 282.989 77.367 282.867 77.367 282.724C77.367 282.581 83.5669 282.459 91.2166 282.459C98.8663 282.459 105.077 282.581 105.077 282.724Z" fill="#263238"/>
<path d="M94.3219 281.092C94.1921 281.02 94.3219 280.561 94.6573 280.072C94.9927 279.582 95.4472 279.378 95.5554 279.48C95.6636 279.582 95.4364 279.97 95.1118 280.388C94.7872 280.806 94.4626 281.163 94.3219 281.092Z" fill="#263238"/>
<path d="M95.3823 281.663C95.2416 281.663 95.3065 281.092 95.642 280.551C95.9774 280.011 96.3994 279.684 96.5184 279.766C96.6374 279.847 96.4318 280.306 96.1289 280.786C95.8259 281.265 95.5338 281.714 95.3823 281.663Z" fill="#263238"/>
<path d="M82.355 282.663C82.2901 282.663 82.052 282.479 81.6841 282.091C81.2483 281.593 80.7628 281.135 80.2343 280.725C79.7145 280.333 79.0954 280.076 78.4381 279.98C77.9404 279.919 77.605 279.98 77.5725 279.919C77.5401 279.858 77.8539 279.643 78.449 279.603C79.2343 279.587 80.0005 279.832 80.613 280.296C81.1898 280.734 81.6743 281.271 82.0412 281.877C82.2901 282.326 82.4199 282.622 82.355 282.663Z" fill="#263238"/>
<path d="M94.376 279.45C94.4518 279.572 94.1704 279.878 93.6944 280.041C93.2183 280.204 92.7963 280.143 92.7747 280.041C92.753 279.939 93.0885 279.725 93.4996 279.582C93.9108 279.439 94.2895 279.327 94.376 279.45Z" fill="#263238"/>
<path d="M94.138 278.603C94.138 278.756 93.7052 278.878 93.1425 278.889C92.5799 278.899 92.1471 278.776 92.1579 278.634C92.1687 278.491 92.6015 278.358 93.1425 278.348C93.6835 278.338 94.138 278.46 94.138 278.603Z" fill="#263238"/>
<path d="M155.141 20.3288C154.708 19.9106 153.637 20.1146 153.637 20.1146C153.745 19.5273 153.745 18.9271 153.637 18.3398C153.442 17.7686 152.079 17.8808 152.079 17.8808C152.016 17.3998 152.016 16.9134 152.079 16.4324C152.09 16.3258 152.066 16.2186 152.009 16.1255C151.953 16.0324 151.868 15.9579 151.765 15.9122C151.12 15.6642 150.427 15.5461 149.731 15.5654C148.898 15.0044 152.274 10.547 153.529 9.11898C154.784 7.69098 154.557 6.57919 153.442 6.57919C152.674 6.57919 148.736 10.8632 147.524 12.3014C146.312 13.7396 143.098 17.738 142.99 14.5454C142.882 11.3528 141.519 8.94559 140.664 8.53759C139.809 8.12959 138.9 9.08838 139.366 9.97578C139.774 10.984 140.029 12.0417 140.123 13.1174C140.241 13.9743 140.2 14.8438 140.004 15.6878C139.645 17.2581 139.157 18.7996 138.543 20.2982H138.457C138.457 20.2982 114.847 41.6468 113.138 43.1666C111.612 44.5334 80.9268 41.5448 74.7702 40.9328C72.6781 40.6442 70.5656 40.5078 68.4513 40.5248C65.7788 40.637 65.3027 40.994 62.641 41.0246C55.919 41.0949 49.2126 41.6508 42.5807 42.6872C39.5777 43.1685 36.7727 44.418 34.4716 46.2995C32.1705 48.1809 30.4617 50.622 29.5318 53.3564C23.3319 71.6144 9.28753 114.832 6.80975 139.108C4.93741 142.309 3.24711 145.601 1.746 148.971C0.00397977 153.439 0.425959 153.592 1.01024 153.694C2.58996 153.969 4.38608 145.952 5.05692 147.89C5.72776 149.828 1.64862 157.447 3.30408 157.672C5.46808 157.957 7.18846 149.512 7.39404 148.839C7.59962 148.165 8.6708 148.38 8.47604 149.012C8.16226 149.91 5.12184 159.426 7.24256 159.732C8.41112 159.895 8.54096 157.886 8.54096 157.886C8.54096 157.886 10.705 148.777 11.6896 148.961C12.6742 149.145 11.6247 154.52 11.1269 156.315C10.6292 158.11 11.3217 159.018 12.3388 158.58C13.0313 158.274 14.6867 152.817 15.1412 151.042C15.5956 149.267 16.7317 144.351 18.2573 147.196C19.7829 150.042 22.0984 151.695 23.0506 151.735C23.2651 151.712 23.4674 151.629 23.6313 151.496C23.7952 151.364 23.9132 151.188 23.9703 150.991C24.0273 150.795 24.0207 150.587 23.9513 150.394C23.8818 150.201 23.7528 150.033 23.5808 149.91C22.7618 149.156 22.0589 148.297 21.4925 147.36C20.9878 146.629 20.6216 145.822 20.4105 144.973C19.9745 143.281 19.7207 141.552 19.6531 139.812L19.48 138.792C21.9037 127.48 28.8826 94.2788 38.956 73.073L43.0892 81.0902L44.8853 87.0266L33.8706 112.659L80.851 112.078L73.8397 86.639L82.355 60.119C91.5628 60.3128 115.205 60.6392 119.143 58.9562C124.099 56.9162 149.731 26.3978 149.731 26.3978C151.402 25.1739 153.002 23.8664 154.524 22.481C154.524 22.481 156.082 21.2468 155.141 20.3288Z" fill="#FFBE9D"/>
<path d="M31.8039 93.7178C33.1673 89.3318 40.1678 67.6466 40.1678 67.6466C40.1678 67.6466 43.6086 85.3232 42.6997 87.455C41.8636 89.28 40.8759 91.0399 39.7458 92.7182C31.8039 104.112 32.8427 109.813 32.8427 109.813L80.8294 108.436C80.9376 102.112 76.9666 87.404 76.1443 85.058C75.322 82.712 78.0594 75.0314 78.0594 75.0314C78.0594 75.0314 83.4694 69.8396 83.2747 67.1672C83.1719 64.7667 82.857 62.3784 82.3333 60.0272L111.547 61.0472L110.628 42.3812L68.6677 38.4236C67.207 42.3098 53.9958 40.4024 53.9958 40.4024C39.735 40.8512 38.8478 43.3196 32.9184 47.6648C26.989 52.01 17.1753 89.3012 17.1753 89.3012L31.8039 93.7178Z" fill="#BFFF00"/>
<path d="M60.174 89.3012C59.3424 89.4413 58.4954 89.4824 57.6529 89.4236C56.084 89.4236 53.9308 89.3216 51.5613 89.0972C49.1917 88.8728 47.0493 88.5566 45.5237 88.271C44.6825 88.1688 43.8577 87.9702 43.0676 87.6794C43.9135 87.6797 44.7576 87.7548 45.5886 87.9038C47.1251 88.0874 49.2566 88.3424 51.6154 88.5668C53.9741 88.7912 56.1165 88.9442 57.6637 89.0462C58.5071 89.0562 59.3477 89.1416 60.174 89.3012Z" fill="#263238"/>
<path d="M63.4633 85.4558C62.6314 85.84 61.7517 86.1244 60.8448 86.3024C56.528 87.3717 52.0744 87.8695 47.612 87.7814C46.6886 87.8098 45.7651 87.7275 44.8637 87.5366C45.775 87.4281 46.6937 87.3838 47.612 87.404C49.3107 87.353 51.6478 87.2408 54.223 86.9552C56.7982 86.6696 59.092 86.2616 60.715 85.9352C61.6165 85.7083 62.5354 85.548 63.4633 85.4558Z" fill="#263238"/>
<path d="M79.6067 68.2994C79.5849 69.077 79.4724 69.8501 79.2713 70.6046C78.99 72.0224 78.5572 73.9604 78.0054 76.082C77.4536 78.2036 76.9234 80.162 76.4473 81.488C76.2559 82.247 75.9727 82.9828 75.6033 83.681C75.6636 82.9057 75.816 82.1393 76.0578 81.3962C76.4689 79.805 76.9342 77.969 77.4536 75.9596C77.9729 73.9502 78.4706 72.1142 78.8818 70.523C79.0282 69.7571 79.2716 69.0106 79.6067 68.2994Z" fill="#263238"/>
<path d="M32.3125 91.1168C29.8093 90.7524 27.3389 90.2102 24.9224 89.495C22.4532 88.9507 20.0301 88.2347 17.673 87.353C20.175 87.7233 22.6449 88.2653 25.0631 88.9748C27.5329 89.5171 29.9562 90.2331 32.3125 91.1168Z" fill="#263238"/>
<path d="M82.8527 59.8028C82.4446 59.869 82.0274 59.869 81.6192 59.8028C80.4891 59.6935 79.3793 59.4431 78.3191 59.0582C76.5491 58.4312 74.9378 57.462 73.5887 56.2131C72.2396 54.9641 71.1825 53.4629 70.4854 51.806C69.715 49.9832 69.386 48.0213 69.5225 46.0634C69.5707 44.4484 70.083 42.8762 71.0048 41.5142C71.6532 40.5967 72.6216 39.9219 73.7423 39.6068C74.0417 39.5289 74.3513 39.4911 74.662 39.4946C74.8784 39.4946 74.9866 39.4946 74.9866 39.4946C74.9866 39.4946 74.5321 39.4946 73.8072 39.77C72.7791 40.128 71.9071 40.7993 71.3294 41.6774C69.8579 43.8602 69.4467 47.8484 71.0156 51.5714C71.7458 53.3268 72.889 54.9031 74.359 56.1818C75.5635 57.228 76.9509 58.07 78.4598 58.6706C79.8758 59.1981 81.3489 59.5778 82.8527 59.8028Z" fill="#263238"/>
<path d="M108.074 60.68C107.803 57.5521 107.717 54.4125 107.814 51.2756C107.73 48.1413 107.831 45.005 108.117 41.8814C108.388 45.0059 108.475 48.1421 108.377 51.2756C108.468 54.4133 108.367 57.5533 108.074 60.68Z" fill="#263238"/>
<path d="M68.3864 39.566C68.5054 37.2914 68.7543 34.721 68.7543 34.721C68.7543 34.721 74.7269 34.0988 75.084 28.2848C75.4411 22.4708 75.084 9.05778 75.084 9.05778L64.264 3.83539L52.2538 12.74L54.104 41.81L65.1188 42.473C65.9607 42.4949 66.7775 42.2013 67.3901 41.6563C68.0027 41.1114 68.3609 40.3596 68.3864 39.566Z" fill="#FFBE9D"/>
<path d="M69.4576 23.6846C69.4576 23.6846 69.4576 23.7968 69.3602 23.9294C69.2797 24.0256 69.1755 24.1018 69.0568 24.1516C68.938 24.2014 68.8082 24.2231 68.6785 24.215C67.986 24.215 67.3152 23.4602 67.0772 22.583C66.964 22.1578 66.964 21.7128 67.0772 21.2876C67.0994 21.102 67.1704 20.9245 67.2837 20.7714C67.3971 20.6182 67.5492 20.4941 67.7264 20.4104C67.8719 20.3537 68.0353 20.3537 68.1808 20.4104C68.2887 20.4609 68.3761 20.5433 68.4297 20.645C68.5054 20.8184 68.4297 20.9306 68.4297 20.9204C68.4297 20.9102 68.4297 20.8184 68.3215 20.7164C68.2649 20.6433 68.1817 20.5925 68.0879 20.5737C67.994 20.5549 67.8961 20.5694 67.8129 20.6144C67.6802 20.69 67.5699 20.7961 67.4924 20.9227C67.4148 21.0493 67.3725 21.1924 67.3693 21.3386C67.2782 21.718 67.2782 22.1118 67.3693 22.4912C67.5857 23.2868 68.17 23.9294 68.6893 23.9906C68.7909 24.0036 68.8943 23.9967 68.993 23.9704C69.0916 23.944 69.1835 23.8989 69.2628 23.8376C69.3926 23.756 69.4359 23.6744 69.4576 23.6846Z" fill="#EB996E"/>
<path d="M78.7952 5.91618C77.9621 3.24378 74.9433 1.91778 72.195 1.18338C68.0077 0.0613836 63.4849 -0.428219 59.395 0.989581C55.305 2.40738 50.3927 4.89618 50.3927 9.14958C47.9799 8.96598 46.5949 10.955 45.6427 13.4234C45.034 14.9272 44.6692 16.509 44.5607 18.1154C44.2578 23.6846 42.6023 31.3754 38.772 35.4554C36.608 37.73 33.6109 39.3008 32.3774 42.1364C31.2954 44.5946 31.858 47.5118 30.8518 50.0006C29.9537 52.1936 27.9737 53.7542 26.5238 55.6616C25.0467 57.8254 24.1774 60.3077 23.9976 62.8753C23.8178 65.4428 24.3333 68.0113 25.4959 70.3394C26.6668 72.6078 28.3153 74.6277 30.3411 76.2761C32.3668 77.9245 34.7274 79.1668 37.2789 79.9274C42.3329 81.3769 47.7225 81.4265 52.8056 80.0702C56.6205 79.2103 60.1791 77.5468 63.2144 75.2048C66.3201 72.8139 68.4532 69.4842 69.252 65.78C70.0202 61.6184 68.7867 57.3854 67.867 53.2442C64.9889 40.1576 65.8112 39.4742 69.4467 27.326C69.5333 27.1118 69.5766 26.8874 69.6415 26.6732C69.7064 26.459 69.7389 26.357 69.7822 26.1938C69.8854 25.7136 69.9398 25.2251 69.9445 24.7352C69.4135 24.9213 68.8371 24.9607 68.2832 24.8487C67.7292 24.7367 67.2208 24.4779 66.8175 24.1028C66.4133 23.7028 66.1314 23.2072 66.0019 22.6685C65.8724 22.1297 65.8999 21.5679 66.0817 21.0428C66.337 20.4684 66.7174 19.951 67.1983 19.524C67.6792 19.097 68.2498 18.7701 68.8733 18.5642C70.0743 18.095 71.3619 17.8502 72.5413 17.33C75.0407 16.208 76.7719 13.8824 77.9513 11.4446C78.9209 9.75499 79.2201 7.79496 78.7952 5.91618Z" fill="#263238"/>
<path d="M69.8904 23.96C70.119 24.2784 70.3078 24.6207 70.453 24.98C70.7776 25.6226 71.2104 26.5304 71.6865 27.581L71.7731 27.7748H71.5458L70.4638 27.8666C69.7173 27.8666 69.0897 27.9992 68.3539 27.989C68.2899 27.9754 68.2305 27.9468 68.1813 27.9058C68.1321 27.8648 68.0947 27.8127 68.0726 27.7544C68.0404 27.6616 68.0404 27.5616 68.0726 27.4688C68.0977 27.3313 68.1302 27.1951 68.17 27.0608L68.3648 26.3366C68.4626 25.8535 68.615 25.3816 68.8192 24.929C68.7991 25.4215 68.7229 25.9105 68.592 26.3876L68.4405 27.1118C68.3864 27.3566 68.289 27.734 68.4405 27.7034C68.9815 27.7034 69.7497 27.5912 70.4638 27.5504L71.5458 27.4586L71.4052 27.683C70.9399 26.663 70.5504 25.7042 70.3232 25.0412C70.1239 24.7026 69.978 24.3383 69.8904 23.96Z" fill="#FF725E"/>
<path d="M32.8427 109.813L80.8294 108.436L101.712 185.283L97.8709 273.432H72.498L75.6033 187.16L57.047 133.661L59.9035 276.849L34.2601 277.206L31.5659 142.617C31.4469 138.873 30.1485 130.438 30.6354 126.725L32.8427 109.813Z" fill="#263238"/>
<path d="M63.4308 134.752C62.6454 134.799 61.8568 134.754 61.0829 134.62C59.633 134.457 57.6529 134.171 55.4781 133.763C53.3033 133.355 51.3557 132.886 49.9491 132.508C49.1972 132.353 48.4698 132.106 47.7851 131.774C47.7851 131.621 51.3124 132.417 55.6404 133.243C59.9684 134.069 63.4524 134.599 63.4308 134.752Z" fill="#455A64"/>
<path d="M97.6112 268.597C97.6112 268.74 91.8658 268.862 84.7787 268.862C77.6916 268.862 71.9354 268.74 71.9354 268.597C71.9354 268.454 77.6808 268.332 84.7787 268.332C91.8766 268.332 97.6112 268.444 97.6112 268.597Z" fill="#455A64"/>
<path d="M59.6763 273.126C59.6763 273.279 54.0932 273.391 47.2116 273.391C40.3301 273.391 34.7578 273.279 34.7578 273.126C34.7578 272.973 40.3409 272.86 47.2116 272.86C54.0823 272.86 59.6763 272.983 59.6763 273.126Z" fill="#455A64"/>
<path d="M56.3654 272.758C56.2139 272.758 55.5431 241.475 54.8614 202.888C54.1797 164.302 53.7794 132.998 53.9201 132.998C54.0607 132.998 54.7532 164.271 55.424 202.878C56.0949 241.485 56.5277 272.758 56.3654 272.758Z" fill="#455A64"/>
<path d="M94.2029 268.597C94.191 268.458 94.191 268.318 94.2029 268.179V266.955C94.2029 265.853 94.2895 264.272 94.3544 262.263C94.5059 258.183 94.7223 252.256 94.9928 244.994C95.577 230.388 96.3994 210.253 97.2974 188.027C97.2974 187.813 97.2974 187.609 97.2974 187.425V187.497C91.6169 166.077 86.4774 146.635 82.7445 132.57L78.4165 115.933C77.9188 113.985 77.5401 112.465 77.2696 111.405C77.1398 110.905 77.0532 110.517 76.9775 110.221C76.9353 110.089 76.9099 109.952 76.9017 109.813C76.9579 109.942 77.0014 110.075 77.0316 110.211C77.1181 110.497 77.2263 110.884 77.3778 111.374C77.6699 112.394 78.0919 113.944 78.6329 115.882C79.7149 119.82 81.2405 125.491 83.1449 132.478C86.9102 146.533 92.1038 165.924 97.8601 187.374V187.446C97.8601 187.629 97.8601 187.843 97.8601 188.047C96.8971 210.273 96.0207 230.398 95.3823 245.004C95.0469 252.277 94.7655 258.162 94.5708 262.263C94.4626 264.303 94.376 265.853 94.3219 266.955C94.3219 267.475 94.257 267.883 94.2462 268.179C94.2478 268.319 94.2333 268.459 94.2029 268.597Z" fill="#455A64"/>
<path d="M85.9256 185.63C84.1031 186.195 82.2257 186.588 80.3208 186.803C77.9837 187.18 75.9928 187.446 75.0948 187.486V187.282C75.3869 187.364 75.5384 187.415 75.5384 187.456C75.5384 187.497 75.3544 187.456 75.0515 187.456H74.4023L75.0515 187.272C75.8954 187.038 77.8863 186.65 80.2234 186.252C82.0979 185.869 84.0078 185.66 85.9256 185.63Z" fill="#455A64"/>
<path d="M85.482 188.557C83.7942 188.63 82.103 188.559 80.429 188.343C78.7389 188.311 77.0552 188.136 75.3977 187.823C78.7792 187.563 82.183 187.811 85.482 188.557Z" fill="#455A64"/>
<path opacity="0.2" d="M32.6371 111.435C33.2054 112.123 33.9212 112.69 34.7378 113.1C35.5544 113.509 36.4535 113.752 37.3762 113.812C39.3089 114.028 41.2638 113.993 43.1866 113.71C55.5755 112.414 68.7001 111.221 80.8294 108.436C65.1295 109.263 48.5425 108.987 32.8427 109.813L32.6804 111.078" fill="black"/>
<g opacity="0.2">
<path d="M48.813 132.294L57.6637 164.669L57.047 133.661L48.813 132.294Z" fill="black"/>
</g>
</svg>
