<svg width="60" height="6" viewBox="0 0 60 6" fill="none" xmlns="http://www.w3.org/2000/svg">
<g opacity="0.2">
<path d="M4.57582 3.09285C4.54389 3.50314 4.38491 3.89556 4.11858 4.22145C3.85224 4.54735 3.49029 4.79237 3.0776 4.92613C2.66492 5.05989 2.21965 5.0765 1.79704 4.97391C1.37443 4.87132 0.993053 4.65405 0.700229 4.34902C0.407405 4.04399 0.216017 3.66461 0.149785 3.25798C0.0835536 2.85135 0.145391 2.43535 0.327648 2.06155C0.509904 1.68775 0.804564 1.37262 1.17506 1.15523C1.54555 0.937835 1.97557 0.827746 2.41182 0.838626C3.01462 0.87029 3.57989 1.12473 3.98499 1.54672C4.3901 1.96872 4.60239 2.52426 4.57582 3.09285Z" fill="#FAFFEB"/>
<path d="M11.4682 3.12332C11.4895 3.41088 11.4478 3.69947 11.3457 3.97119C11.2436 4.2429 11.0832 4.49192 10.8747 4.70272C10.6661 4.91353 10.4138 5.08163 10.1334 5.19657C9.85295 5.3115 9.55044 5.37082 9.24466 5.37082C8.93888 5.37082 8.63637 5.3115 8.35594 5.19657C8.07552 5.08163 7.82318 4.91353 7.61463 4.70272C7.40607 4.49192 7.24576 4.2429 7.14366 3.97119C7.04156 3.69947 6.99987 3.41088 7.02116 3.12332C6.99987 2.83576 7.04156 2.54715 7.14366 2.27543C7.24576 2.00371 7.40607 1.7547 7.61463 1.54389C7.82318 1.33308 8.07552 1.16498 8.35594 1.05005C8.63637 0.935113 8.93888 0.875793 9.24466 0.875793C9.55044 0.875793 9.85295 0.935113 10.1334 1.05005C10.4138 1.16498 10.6661 1.33308 10.8747 1.54389C11.0832 1.7547 11.2436 2.00371 11.3457 2.27543C11.4478 2.54715 11.4895 2.83576 11.4682 3.12332Z" fill="#FAFFEB"/>
<path d="M18.3713 3.15382C18.3394 3.56411 18.1804 3.95653 17.914 4.28243C17.6477 4.60832 17.2858 4.85334 16.8731 4.9871C16.4604 5.12086 16.0151 5.13748 15.5925 5.03488C15.1699 4.93229 14.7885 4.71502 14.4957 4.40999C14.2029 4.10496 14.0115 3.72558 13.9453 3.31896C13.879 2.91233 13.9409 2.49632 14.1231 2.12252C14.3054 1.74873 14.6 1.4336 14.9705 1.2162C15.341 0.998809 15.771 0.88872 16.2073 0.8996C16.8091 0.933847 17.3727 1.18904 17.7772 1.61044C18.1818 2.03184 18.395 2.58592 18.3713 3.15382Z" fill="#FAFFEB"/>
<path d="M25.2636 3.18464C25.2317 3.59494 25.0727 3.98735 24.8064 4.31325C24.54 4.63915 24.1781 4.88416 23.7654 5.01792C23.3527 5.15169 22.9075 5.1683 22.4848 5.06571C22.0622 4.96311 21.6809 4.74584 21.388 4.44081C21.0952 4.13578 20.9038 3.75644 20.8376 3.34981C20.7714 2.94318 20.8332 2.52714 21.0155 2.15335C21.1977 1.77955 21.4924 1.46442 21.8629 1.24702C22.2334 1.02963 22.6634 0.919543 23.0996 0.930423C23.7014 0.964669 24.265 1.21986 24.6696 1.64126C25.0741 2.06266 25.2874 2.61674 25.2636 3.18464Z" fill="#FAFFEB"/>
<path d="M32.156 3.20503C32.1262 3.61593 31.9689 4.00949 31.7037 4.33681C31.4385 4.66413 31.0771 4.91077 30.6645 5.04606C30.2518 5.18136 29.8061 5.19935 29.3827 5.0978C28.9593 4.99625 28.5769 4.77965 28.283 4.4749C27.9891 4.17015 27.7967 3.79069 27.7297 3.38371C27.6627 2.97672 27.7241 2.56016 27.9062 2.18578C28.0883 1.8114 28.383 1.49571 28.7539 1.27796C29.1247 1.06022 29.5553 0.949987 29.992 0.96102C30.5919 0.995255 31.1538 1.24903 31.558 1.66822C31.9623 2.0874 32.1769 2.63886 32.156 3.20503Z" fill="#FAFFEB"/>
<path d="M39.0592 3.23566C39.0297 3.64443 38.874 4.03613 38.6114 4.36258C38.3487 4.68903 37.9906 4.936 37.581 5.07305C37.1714 5.21009 36.7282 5.23125 36.306 5.13393C35.8838 5.03661 35.501 4.82504 35.2047 4.52529C34.9084 4.22553 34.7116 3.85066 34.6384 3.4468C34.5651 3.04293 34.6188 2.6277 34.7927 2.2522C34.9666 1.8767 35.2531 1.5573 35.6171 1.33334C35.981 1.10937 36.4065 0.990603 36.8411 0.991645C37.4505 1.01291 38.0262 1.26105 38.4419 1.68166C38.8577 2.10227 39.0797 2.66107 39.0592 3.23566Z" fill="#FAFFEB"/>
<path d="M45.9515 3.26624C45.9728 3.5538 45.9311 3.84241 45.829 4.11413C45.7269 4.38585 45.5666 4.63486 45.358 4.84567C45.1495 5.05648 44.8971 5.22458 44.6167 5.33951C44.3363 5.45445 44.0338 5.51374 43.728 5.51374C43.4222 5.51374 43.1197 5.45445 42.8393 5.33951C42.5588 5.22458 42.3065 5.05648 42.098 4.84567C41.8894 4.63486 41.7291 4.38585 41.627 4.11413C41.5249 3.84241 41.4832 3.5538 41.5045 3.26624C41.4832 2.97868 41.5249 2.69006 41.627 2.41834C41.7291 2.14663 41.8894 1.89761 42.098 1.68681C42.3065 1.476 42.5588 1.30793 42.8393 1.19299C43.1197 1.07806 43.4222 1.01874 43.728 1.01874C44.0338 1.01874 44.3363 1.07806 44.6167 1.19299C44.8971 1.30793 45.1495 1.476 45.358 1.68681C45.5666 1.89761 45.7269 2.14663 45.829 2.41834C45.9311 2.69006 45.9728 2.97868 45.9515 3.26624Z" fill="#FAFFEB"/>
<path d="M52.8438 3.29684C52.8143 3.70562 52.6586 4.09735 52.396 4.4238C52.1334 4.75025 51.7752 4.99719 51.3656 5.13423C50.956 5.27128 50.5129 5.29244 50.0907 5.19512C49.6685 5.0978 49.2857 4.88623 48.9894 4.58647C48.6931 4.28672 48.4962 3.91185 48.423 3.50799C48.3498 3.10412 48.4034 2.68889 48.5773 2.31339C48.7512 1.93789 49.0378 1.61849 49.4017 1.39452C49.7657 1.17056 50.1911 1.05182 50.6258 1.05286C51.2352 1.07413 51.8108 1.32224 52.2266 1.74284C52.6424 2.16345 52.8643 2.72226 52.8438 3.29684Z" fill="#FAFFEB"/>
<path d="M59.7362 3.32744C59.7064 3.73833 59.5491 4.1319 59.2839 4.45922C59.0187 4.78654 58.6574 5.03317 58.2447 5.16847C57.8321 5.30377 57.3864 5.32178 56.9629 5.22023C56.5395 5.11869 56.1571 4.90205 55.8632 4.5973C55.5693 4.29255 55.3769 3.9131 55.3099 3.50611C55.2429 3.09913 55.3043 2.68257 55.4864 2.30819C55.6685 1.9338 55.9632 1.61812 56.3341 1.40037C56.7049 1.18262 57.1355 1.07242 57.5722 1.08346C58.1721 1.11769 58.734 1.37143 59.1382 1.79062C59.5425 2.20981 59.757 2.76126 59.7362 3.32744Z" fill="#FAFFEB"/>
</g>
</svg>
