<svg width="32" height="32" viewBox="0 0 32 32" fill="none" xmlns="http://www.w3.org/2000/svg">
<path fill-rule="evenodd" clip-rule="evenodd" d="M16 5.63636C10.2763 5.63636 5.63636 10.2763 5.63636 16C5.63636 21.7236 10.2763 26.3636 16 26.3636C21.7237 26.3636 26.3638 21.7236 26.3638 16C26.3638 10.2763 21.7237 5.63636 16 5.63636ZM4 16C4 9.37258 9.37259 4 16 4C22.6274 4 28.0001 9.37258 28.0001 16C28.0001 22.6274 22.6274 28 16 28C9.37259 28 4 22.6274 4 16Z" fill="#86C753"/>
<path fill-rule="evenodd" clip-rule="evenodd" d="M26.909 16.7272H5.09082V15.2726H26.909V16.7272Z" fill="#86C753"/>
<path fill-rule="evenodd" clip-rule="evenodd" d="M15.2725 26.9091V5.09086H16.7271V26.9091H15.2725ZM21.2272 15.9999C21.2272 12.0495 19.8066 8.14137 17.0215 5.55733L17.8871 4.62433C20.9811 7.49482 22.5 11.7686 22.5 15.9999C22.5 20.2313 20.9811 24.5051 17.8871 27.3756L17.0215 26.4425C19.8066 23.8585 21.2272 19.9504 21.2272 15.9999ZM9.63574 16C9.63574 11.7747 11.1051 7.50319 14.1048 4.6312L14.985 5.55051C12.2876 8.1331 10.9085 12.0434 10.9085 16C10.9085 19.9565 12.2876 23.8669 14.985 26.4494L14.1048 27.3687C11.1052 24.4967 9.63576 20.2252 9.63574 16Z" fill="#86C753"/>
<path fill-rule="evenodd" clip-rule="evenodd" d="M15.9999 9.55997C19.9441 9.55997 23.9551 10.2893 26.6738 11.8081C26.9807 11.9795 27.0905 12.3672 26.9191 12.674C26.7478 12.9808 26.36 13.0906 26.0533 12.9192C23.5989 11.5482 19.8327 10.8327 15.9999 10.8327C12.1671 10.8327 8.40091 11.5482 5.94658 12.9192C5.63974 13.0906 5.25207 12.9808 5.08067 12.674C4.90928 12.3672 5.01906 11.9795 5.3259 11.8081C8.0448 10.2893 12.0557 9.55997 15.9999 9.55997ZM15.9999 22.0909C19.9441 22.0909 23.9551 21.3614 26.6738 19.8427C26.9807 19.6713 27.0905 19.2836 26.9191 18.9768C26.7478 18.67 26.36 18.5602 26.0533 18.7316C23.5989 20.1026 19.8327 20.8182 15.9999 20.8182C12.1671 20.8182 8.40091 20.1026 5.94658 18.7316C5.63974 18.5602 5.25207 18.67 5.08067 18.9768C4.90928 19.2836 5.01906 19.6713 5.3259 19.8427C8.0448 21.3614 12.0557 22.0909 15.9999 22.0909Z" fill="#86C753"/>
</svg>
