<svg width="15" height="16" viewBox="0 0 15 16" fill="none" xmlns="http://www.w3.org/2000/svg">
<path opacity="0.1" d="M8.94411 8.08021C9.69574 7.76818 10.3334 7.25467 10.7778 6.60358C11.2223 5.9525 11.4538 5.19258 11.4435 4.41841C11.4715 3.91515 11.3906 3.41178 11.2055 2.93897C11.0205 2.46616 10.7354 2.0338 10.3674 1.66824C9.99943 1.30267 9.55636 1.01155 9.06519 0.812614C8.57402 0.613675 8.04503 0.511078 7.51044 0.511078C6.97586 0.511078 6.44687 0.613675 5.9557 0.812614C5.46453 1.01155 5.02146 1.30267 4.65348 1.66824C4.28551 2.0338 4.00034 2.46616 3.81534 2.93897C3.63033 3.41178 3.54939 3.91515 3.5774 4.41841C3.56091 5.20033 3.79053 5.96933 4.2373 6.62831C4.68407 7.2873 5.32793 7.80673 6.08761 8.12102C0.0284105 8.97782 0.298937 15.1794 0.298937 15.1794L14.6246 15.2406C14.6246 15.2406 14.96 8.92681 8.94411 8.08021Z" fill="#2A522A"/>
</svg>
