<svg width="5" height="6" viewBox="0 0 5 6" fill="none" xmlns="http://www.w3.org/2000/svg">
<path d="M4.46818 3.12338C4.48947 3.41094 4.44776 3.69953 4.34566 3.97125C4.24356 4.24296 4.08325 4.49198 3.87469 4.70278C3.66614 4.91359 3.4138 5.08169 3.13338 5.19663C2.85295 5.31156 2.55044 5.37088 2.24466 5.37088C1.93888 5.37088 1.63637 5.31156 1.35594 5.19663C1.07552 5.08169 0.823183 4.91359 0.614626 4.70278C0.40607 4.49198 0.245761 4.24296 0.143662 3.97125C0.0415628 3.69953 -0.00013434 3.41094 0.0211575 3.12338C-0.00013434 2.83582 0.0415628 2.54721 0.143662 2.27549C0.245761 2.00377 0.40607 1.75476 0.614626 1.54395C0.823183 1.33315 1.07552 1.16504 1.35594 1.05011C1.63637 0.935174 1.93888 0.875854 2.24466 0.875854C2.55044 0.875854 2.85295 0.935174 3.13338 1.05011C3.4138 1.16504 3.66614 1.33315 3.87469 1.54395C4.08325 1.75476 4.24356 2.00377 4.34566 2.27549C4.44776 2.54721 4.48947 2.83582 4.46818 3.12338Z" fill="#3B763B"/>
</svg>
