<svg width="5" height="5" viewBox="0 0 5 5" fill="none" xmlns="http://www.w3.org/2000/svg">
<path d="M4.7362 2.32738C4.70635 2.73827 4.54907 3.13184 4.28389 3.45916C4.01872 3.78648 3.65737 4.03311 3.24472 4.16841C2.83207 4.30371 2.38635 4.32172 1.96295 4.22017C1.53954 4.11863 1.1571 3.90199 0.863216 3.59724C0.569331 3.29249 0.376933 2.91304 0.309933 2.50605C0.242933 2.09907 0.304309 1.68251 0.486392 1.30812C0.668475 0.93374 0.963241 0.618055 1.33408 0.400309C1.70492 0.182563 2.13546 0.0723625 2.5722 0.083396C3.17205 0.117631 3.734 0.371373 4.13824 0.79056C4.54248 1.20975 4.75705 1.7612 4.7362 2.32738Z" fill="#3B763B"/>
</svg>
