<svg width="143" height="282" viewBox="0 0 143 282" fill="none" xmlns="http://www.w3.org/2000/svg">
<path d="M126.24 0.840023H105.293C104.609 0.851966 103.935 0.990732 103.308 1.24839C102.682 1.50605 102.115 1.87755 101.641 2.34168C101.166 2.80581 100.794 3.35347 100.544 3.95338C100.294 4.55329 100.173 5.1937 100.185 5.83802V9.41823C100.198 10.0621 100.076 10.702 99.8266 11.3013C99.5768 11.9006 99.204 12.4476 98.7296 12.9109C98.2552 13.3742 97.6885 13.7448 97.062 14.0013C96.4355 14.2579 95.7614 14.3954 95.0784 14.406L54.2437 14.2326C52.8623 14.1979 51.552 13.6478 50.6005 12.703C49.6491 11.7582 49.1343 10.4961 49.1692 9.19383V5.61362C49.2041 4.31304 48.6908 3.05243 47.7416 2.10796C46.7925 1.1635 45.4849 0.612192 44.1054 0.57482H36.737L18.3971 0.493226C14.0349 0.468743 9.84012 2.07473 6.73129 4.95954C3.62246 7.84435 1.85288 11.7729 1.81002 15.885L0.728019 265.193C0.71805 267.233 1.13442 269.255 1.95336 271.144C2.7723 273.032 3.97779 274.75 5.50096 276.199C7.02414 277.648 8.83518 278.8 10.8307 279.59C12.8262 280.379 14.9671 280.79 17.1311 280.799L124.985 281.269C127.15 281.278 129.297 280.885 131.301 280.113C133.305 279.34 135.129 278.203 136.667 276.766C138.205 275.329 139.428 273.621 140.266 271.739C141.104 269.856 141.54 267.837 141.55 265.795L142.632 16.4868C142.658 12.3631 140.946 8.39846 137.872 5.4644C134.798 2.53033 130.614 0.866991 126.24 0.840023Z" fill="#FAFFEB"/>
</svg>
