<svg width="6" height="5" viewBox="0 0 6 5" fill="none" xmlns="http://www.w3.org/2000/svg">
<path d="M5.05921 2.2356C5.02967 2.64437 4.874 3.03607 4.61135 3.36252C4.34871 3.68897 3.99056 3.93594 3.58097 4.07298C3.17137 4.21003 2.72822 4.23119 2.30603 4.13387C1.88384 4.03655 1.50104 3.82498 1.20475 3.52523C0.90845 3.22547 0.711565 2.8506 0.638353 2.44674C0.565141 2.04287 0.618801 1.62764 0.792689 1.25214C0.966576 0.87664 1.25312 0.557237 1.61707 0.333275C1.98101 0.109313 2.40646 -0.00945762 2.84109 -0.00841606C3.45052 0.0128532 4.02617 0.260987 4.44193 0.681597C4.85768 1.10221 5.07967 1.66101 5.05921 2.2356Z" fill="#3B763B"/>
</svg>
