<svg width="5" height="5" viewBox="0 0 5 5" fill="none" xmlns="http://www.w3.org/2000/svg">
<path d="M4.9515 2.26618C4.97279 2.55374 4.93109 2.84235 4.82899 3.11407C4.7269 3.38579 4.56659 3.6348 4.35803 3.84561C4.14947 4.05641 3.89712 4.22452 3.6167 4.33945C3.33627 4.45439 3.03378 4.51367 2.728 4.51367C2.42222 4.51367 2.11969 4.45439 1.83926 4.33945C1.55884 4.22452 1.30652 4.05641 1.09796 3.84561C0.889407 3.6348 0.729098 3.38579 0.626999 3.11407C0.5249 2.84235 0.483203 2.55374 0.504495 2.26618C0.483203 1.97862 0.5249 1.69 0.626999 1.41828C0.729098 1.14657 0.889407 0.897552 1.09796 0.686744C1.30652 0.475937 1.55884 0.307866 1.83926 0.192931C2.11969 0.077996 2.42222 0.0186768 2.728 0.0186768C3.03378 0.0186768 3.33627 0.077996 3.6167 0.192931C3.89712 0.307866 4.14947 0.475937 4.35803 0.686744C4.56659 0.897552 4.7269 1.14657 4.82899 1.41828C4.93109 1.69 4.97279 1.97862 4.9515 2.26618Z" fill="#3B763B"/>
</svg>
