<svg width="113" height="19" viewBox="0 0 113 19" fill="none" xmlns="http://www.w3.org/2000/svg">
<path d="M110.188 18.416C110.406 18.3917 110.623 18.3542 110.837 18.3038C111.138 18.2137 111.415 18.0643 111.65 17.8656C111.885 17.6669 112.072 17.4234 112.2 17.1512C112.37 16.7393 112.436 16.296 112.395 15.8558C112.395 15.356 112.395 14.8358 112.395 14.234C112.395 13.061 112.395 11.7044 112.395 10.154V3.67702C112.447 3.20809 112.337 2.73595 112.081 2.33061C111.808 1.92249 111.39 1.61891 110.902 1.47382C110.363 1.37954 109.814 1.3487 109.268 1.38202H93.698L3.51327 1.06582C3.02818 1.0669 2.55999 1.23401 2.19579 1.53607C1.83158 1.83813 1.59614 2.25458 1.53321 2.70801C1.53321 3.72801 1.53321 4.74801 1.53321 5.76801C1.53321 7.80801 1.53321 9.84801 1.53321 11.888C1.53321 12.908 1.53321 13.928 1.53321 14.948C1.49292 15.4213 1.51472 15.8975 1.59813 16.3658C1.72771 16.782 2.00698 17.1427 2.38798 17.3858C2.78517 17.6303 3.25658 17.745 3.72967 17.7122H8.43636L32.381 17.8346L72.9235 18.0692L100.255 18.2732L107.688 18.3548H100.255H72.9235L32.381 18.2426L8.43636 18.1508H3.72967C3.14395 18.1881 2.56169 18.041 2.07421 17.7326C1.58187 17.4111 1.22255 16.9391 1.05713 16.3964C0.960149 15.8781 0.931076 15.3506 0.970565 14.8256C0.970565 13.8056 0.970565 12.7856 0.970565 11.7656C0.970565 9.72561 0.970565 7.68561 0.970565 5.64561C0.970565 4.62561 0.970565 3.60563 0.970565 2.53463C1.04706 1.95224 1.34659 1.41626 1.81284 1.02744C2.27909 0.638624 2.87994 0.423744 3.50244 0.423218L93.6871 0.892409L109.257 1.00463C109.837 0.971096 110.419 1.0088 110.988 1.11681C111.55 1.28997 112.025 1.65336 112.319 2.13681C112.599 2.58608 112.72 3.10755 112.665 3.626C112.665 4.1054 112.665 4.58482 112.665 5.04382C112.665 6.89002 112.665 8.58322 112.665 10.1438C112.665 11.7044 112.665 13.0202 112.665 14.2238C112.665 14.8052 112.665 15.3458 112.665 15.8456C112.707 16.3018 112.629 16.7607 112.438 17.1818C112.298 17.4633 112.095 17.7128 111.842 17.9135C111.59 18.1142 111.295 18.2612 110.978 18.3446C110.724 18.4265 110.453 18.4509 110.188 18.416Z" fill="#E0E0E0"/>
</svg>
