<svg width="157" height="301" viewBox="0 0 157 301" fill="none" xmlns="http://www.w3.org/2000/svg">
<path d="M132.039 300.866L23.958 300.397C17.7164 300.365 11.7437 297.998 7.35147 293.818C2.95928 289.637 0.506836 283.984 0.532735 278.1L1.67965 22.6818C1.69241 19.7667 2.31447 16.8825 3.5103 14.1942C4.70613 11.5059 6.45228 9.06605 8.64891 7.01423C10.8455 4.96242 13.4496 3.33882 16.3122 2.23627C19.1748 1.13372 22.2399 0.573835 25.3322 0.588603L133.402 1.0578C139.644 1.08749 145.618 3.45129 150.012 7.63004C154.406 11.8088 156.861 17.4608 156.838 23.3448L155.692 278.753C155.679 281.669 155.057 284.554 153.861 287.243C152.666 289.933 150.92 292.374 148.724 294.428C146.527 296.481 143.923 298.107 141.061 299.211C138.198 300.316 135.132 300.878 132.039 300.866Z" fill="#455A64"/>
</svg>
