<svg width="5" height="5" viewBox="0 0 5 5" fill="none" xmlns="http://www.w3.org/2000/svg">
<path d="M4.84385 2.29684C4.81431 2.70562 4.65864 3.09735 4.396 3.4238C4.13335 3.75025 3.7752 3.99719 3.36561 4.13423C2.95601 4.27128 2.51286 4.29244 2.09067 4.19512C1.66848 4.0978 1.28568 3.88623 0.989387 3.58647C0.693091 3.28672 0.496239 2.91185 0.423028 2.50799C0.349816 2.10412 0.403443 1.68889 0.57733 1.31339C0.751218 0.937888 1.03776 0.618485 1.40171 0.394523C1.76566 0.170562 2.19114 0.0518217 2.62576 0.0528632C3.2352 0.0741325 3.81085 0.322235 4.2266 0.742845C4.64236 1.16345 4.86431 1.72226 4.84385 2.29684Z" fill="#3B763B"/>
</svg>
