<svg width="113" height="19" viewBox="0 0 113 19" fill="none" xmlns="http://www.w3.org/2000/svg">
<path d="M110.107 18.6866C110.326 18.6658 110.541 18.6178 110.746 18.5438C111.045 18.4335 111.306 18.2457 111.497 18.0021C111.688 17.7585 111.803 17.469 111.828 17.1668C111.828 15.545 111.828 13.1786 111.828 10.139C111.828 8.61922 111.828 6.91582 111.828 5.03902C111.828 4.58002 111.828 4.10062 111.828 3.62122C111.898 3.15604 111.791 2.68238 111.525 2.28502C111.376 2.09449 111.182 1.93914 110.959 1.83118C110.735 1.72321 110.488 1.66558 110.237 1.66282H108.549H92.9144L2.41585 1.34662C2.18421 1.34291 1.95505 1.39197 1.74784 1.48964C1.54063 1.58731 1.3615 1.73071 1.22566 1.90763C0.964375 2.3066 0.86448 2.78102 0.944331 3.24382C0.944331 4.26382 0.944331 5.28382 0.944331 6.30382C0.944331 8.34382 0.944331 10.3838 0.944331 12.4238C0.944331 13.4438 0.944331 14.4638 0.944331 15.4838C0.899445 15.9589 0.899445 16.4368 0.944331 16.9118C1.00117 17.1155 1.10682 17.3041 1.25313 17.4633C1.39945 17.6224 1.58252 17.7478 1.78829 17.8298C2.00149 17.9098 2.22976 17.948 2.45914 17.942H7.96652L31.9977 18.0644L72.6809 18.299L100.11 18.503L107.565 18.5846H109.501C109.945 18.5846 110.161 18.5846 110.161 18.5846H109.501H107.565H100.11H72.6809L31.9977 18.4622L7.96652 18.3704H2.45914C2.15605 18.382 1.85375 18.3333 1.57189 18.2276C1.28699 18.113 1.03362 17.9386 0.831106 17.7176C0.62859 17.4966 0.482275 17.235 0.403331 16.9526C0.340697 16.6849 0.31884 16.4102 0.338414 16.1366V15.3818C0.338414 14.3618 0.338414 13.3418 0.338414 12.3218C0.338414 10.2818 0.338414 8.24182 0.338414 6.20182C0.338414 5.18182 0.338414 4.16182 0.338414 3.14182C0.317778 2.87016 0.317778 2.59747 0.338414 2.32581C0.378958 2.02577 0.502054 1.74095 0.695476 1.49962C0.882131 1.2534 1.12917 1.05339 1.41554 0.916637C1.70191 0.77988 2.01913 0.710445 2.34012 0.714227L92.8386 1.18342L108.474 1.28543H110.161C110.459 1.28564 110.752 1.35342 111.015 1.48304C111.279 1.61266 111.506 1.80028 111.676 2.03002C111.981 2.47348 112.104 3.00656 112.022 3.52942C112.022 4.00882 112.022 4.48822 112.022 4.94722C112.022 6.80362 112.022 8.50702 112.022 10.0472C112.022 13.1072 111.947 15.4532 111.925 17.0852C111.899 17.399 111.778 17.6992 111.576 17.9503C111.375 18.2015 111.102 18.3932 110.789 18.503C110.584 18.6226 110.348 18.6862 110.107 18.6866Z" fill="#E0E0E0"/>
</svg>
