<svg width="83" height="25" viewBox="0 0 83 25" fill="none" xmlns="http://www.w3.org/2000/svg">
<path d="M80.4546 23.6077L80.4504 23.6077L1.51118 23.2799H1.5091C1.07719 23.2799 0.530263 22.7709 0.539355 21.8798L0.539368 21.8768L0.624572 2.01516H0.624576V2.01302C0.624576 1.60649 0.7586 1.23924 0.957588 0.98281C1.15667 0.726257 1.3945 0.608125 1.61467 0.607789C1.61499 0.607788 1.6153 0.607788 1.61561 0.607788L79.2014 0.950088C79.2491 0.950299 79.2964 0.950419 79.3433 0.950538C79.7591 0.951593 80.1417 0.952565 80.489 1.01582C80.8641 1.08414 81.1236 1.21361 81.293 1.43429C81.4871 1.68729 81.57 1.99907 81.529 2.30518L81.5247 2.33728L81.5246 2.36966L81.45 22.2108V22.2127C81.45 23.1092 80.8895 23.6132 80.4546 23.6077Z" fill="#3B763B" stroke="#BFFF00"/>
</svg>
