<svg width="112" height="19" viewBox="0 0 112 19" fill="none" xmlns="http://www.w3.org/2000/svg">
<path d="M109.404 18.6078C109.623 18.5825 109.839 18.545 110.053 18.4956C110.355 18.4049 110.634 18.2542 110.869 18.0536C111.104 17.8531 111.291 17.6072 111.417 17.3328C111.587 16.921 111.654 16.4776 111.611 16.0374C111.611 15.5478 111.611 15.0174 111.611 14.4258C111.611 13.2426 111.611 11.8962 111.611 10.3458V3.86882C111.663 3.39989 111.553 2.92775 111.298 2.52241C111.031 2.10671 110.611 1.79811 110.118 1.65542C109.579 1.56476 109.03 1.53735 108.484 1.57382H92.9144L2.72967 1.25762C2.24457 1.2587 1.77641 1.42579 1.4122 1.72785C1.048 2.02991 0.812534 2.44639 0.749604 2.89982C0.749604 3.86882 0.749604 4.93982 0.749604 5.95982C0.749604 7.99982 0.749604 10.0398 0.749604 12.0798C0.749604 13.0998 0.749604 14.1198 0.749604 15.1398C0.709298 15.6165 0.731098 16.0961 0.814522 16.5678C0.949616 16.9814 1.22767 17.3405 1.60438 17.5878C2.00406 17.8269 2.47355 17.9411 2.94606 17.9142H4.45004H7.57702L31.5217 18.0264L72.0642 18.261L99.3955 18.465L106.829 18.5466H99.3955H72.0642L31.5 18.5058L7.55538 18.4242H2.84869C2.26345 18.4569 1.6827 18.3102 1.19323 18.006C0.700889 17.6845 0.341571 17.2125 0.176146 16.6698C0.0791676 16.1515 0.0500946 15.624 0.0895836 15.099C0.0895836 14.079 0.0895836 13.059 0.0895836 12.039C0.0895836 9.99901 0.0895836 7.95901 0.0895836 5.91901C0.0895836 4.89901 0.0895836 3.87901 0.0895836 2.85901C0.168534 2.27577 0.470266 1.73965 0.938297 1.351C1.40633 0.962361 2.00858 0.747852 2.63229 0.74762L92.817 1.21681L108.387 1.32901C108.967 1.29548 109.549 1.3332 110.118 1.44121C110.68 1.61437 111.154 1.97776 111.449 2.46121C111.729 2.91048 111.85 3.43197 111.795 3.95042C111.795 4.42982 111.795 4.89902 111.795 5.36822C111.795 7.21442 111.795 8.90762 111.795 10.4682C111.795 12.0288 111.795 13.3446 111.795 14.5482C111.795 15.1296 111.795 15.6702 111.795 16.17C111.835 16.6262 111.757 17.0845 111.568 17.5062C111.428 17.7877 111.224 18.0372 110.972 18.2379C110.72 18.4386 110.425 18.5856 110.107 18.669C109.871 18.6874 109.633 18.6667 109.404 18.6078Z" fill="#E0E0E0"/>
</svg>
