<svg width="6" height="6" viewBox="0 0 6 6" fill="none" xmlns="http://www.w3.org/2000/svg">
<path d="M5.37135 3.15401C5.33942 3.5643 5.18044 3.95672 4.91411 4.28261C4.64778 4.60851 4.28582 4.85352 3.87314 4.98728C3.46045 5.12105 3.01518 5.13766 2.59257 5.03507C2.16996 4.93247 1.78859 4.7152 1.49576 4.41017C1.20294 4.10514 1.01155 3.72577 0.945318 3.31914C0.879086 2.91251 0.940923 2.4965 1.12318 2.12271C1.30544 1.74891 1.6001 1.43378 1.97059 1.21639C2.34108 0.998992 2.77111 0.888903 3.20735 0.899783C3.80915 0.93403 4.37275 1.18922 4.77729 1.61062C5.18183 2.03202 5.39509 2.5861 5.37135 3.15401Z" fill="#3B763B"/>
</svg>
