<svg width="6" height="6" viewBox="0 0 6 6" fill="none" xmlns="http://www.w3.org/2000/svg">
<path d="M5.156 3.20503C5.12615 3.61593 4.96887 4.00949 4.70369 4.33681C4.43852 4.66413 4.07714 4.91077 3.66449 5.04606C3.25184 5.18136 2.80614 5.19935 2.38273 5.0978C1.95933 4.99625 1.57691 4.77965 1.28302 4.4749C0.989133 4.17015 0.796736 3.79069 0.729736 3.38371C0.662735 2.97672 0.724095 2.56016 0.906178 2.18578C1.08826 1.8114 1.38304 1.49571 1.75388 1.27796C2.12473 1.06022 2.55527 0.949987 2.992 0.96102C3.59186 0.995255 4.1538 1.24903 4.55804 1.66822C4.96229 2.0874 5.17685 2.63886 5.156 3.20503Z" fill="#3B763B"/>
</svg>
