<svg width="6" height="6" viewBox="0 0 6 6" fill="none" xmlns="http://www.w3.org/2000/svg">
<path d="M5.2637 3.18464C5.23177 3.59494 5.07277 3.98735 4.80644 4.31325C4.54011 4.63915 4.17816 4.88416 3.76547 5.01792C3.35278 5.15169 2.90751 5.1683 2.4849 5.06571C2.06229 4.96311 1.68093 4.74584 1.38811 4.44081C1.09528 4.13578 0.90388 3.75644 0.837649 3.34981C0.771417 2.94318 0.833271 2.52714 1.01553 2.15335C1.19778 1.77955 1.49243 1.46442 1.86292 1.24702C2.23341 1.02963 2.66345 0.919543 3.0997 0.930423C3.7015 0.964669 4.26508 1.21986 4.66962 1.64126C5.07416 2.06266 5.28744 2.61674 5.2637 3.18464Z" fill="#3B763B"/>
</svg>
