<svg width="5" height="6" viewBox="0 0 5 6" fill="none" xmlns="http://www.w3.org/2000/svg">
<path d="M4.57582 3.09285C4.54389 3.50314 4.38491 3.89556 4.11858 4.22145C3.85224 4.54735 3.49029 4.79237 3.0776 4.92613C2.66492 5.05989 2.21965 5.0765 1.79704 4.97391C1.37443 4.87132 0.993053 4.65405 0.700229 4.34902C0.407405 4.04399 0.216017 3.66461 0.149785 3.25798C0.0835536 2.85135 0.145391 2.43535 0.327648 2.06155C0.509904 1.68775 0.804564 1.37262 1.17506 1.15523C1.54555 0.937835 1.97557 0.827746 2.41182 0.838626C3.01462 0.87029 3.57989 1.12473 3.98499 1.54672C4.3901 1.96872 4.60239 2.52426 4.57582 3.09285Z" fill="#3B763B"/>
</svg>
